<svg xmlns="http://www.w3.org/2000/svg" width="470" height="319" viewBox="0 0 470 319">
    <g fill="none" fill-rule="evenodd" opacity=".337">
        <path d="M0 318V0h470v318z"/>
        <path fill="#EBEBEB" fill-rule="nonzero" d="M439.677 295.286c0-4.182 3.394-7.572 7.581-7.572s7.58 3.39 7.58 7.572c0 4.181-3.393 7.571-7.58 7.571s-7.58-3.39-7.58-7.571zm0-30.286c0-4.182 3.394-7.571 7.581-7.571s7.58 3.39 7.58 7.571c0 4.182-3.393 7.571-7.58 7.571s-7.58-3.39-7.58-7.571zm0-30.286c0-4.181 3.394-7.571 7.581-7.571s7.58 3.39 7.58 7.571c0 4.182-3.393 7.572-7.58 7.572s-7.58-3.39-7.58-7.572zm0-30.285c0-4.182 3.394-7.572 7.581-7.572s7.58 3.39 7.58 7.572c0 4.181-3.393 7.571-7.58 7.571s-7.58-3.39-7.58-7.571zm0-30.286c0-4.182 3.394-7.572 7.581-7.572s7.58 3.39 7.58 7.572c0 4.181-3.393 7.571-7.58 7.571s-7.58-3.39-7.58-7.571zm0-30.286c0-4.181 3.394-7.571 7.581-7.571s7.58 3.39 7.58 7.571c0 4.182-3.393 7.572-7.58 7.572s-7.58-3.39-7.58-7.572zm0-30.286c0-4.181 3.394-7.571 7.581-7.571s7.58 3.39 7.58 7.571c0 4.182-3.393 7.572-7.58 7.572s-7.58-3.39-7.58-7.572zm0-30.285c0-4.182 3.394-7.572 7.581-7.572s7.58 3.39 7.58 7.572c0 4.181-3.393 7.571-7.58 7.571s-7.58-3.39-7.58-7.571zm0-30.286c0-4.182 3.394-7.571 7.581-7.571s7.58 3.39 7.58 7.571c0 4.182-3.393 7.571-7.58 7.571s-7.58-3.39-7.58-7.571zm0-30.286c0-4.181 3.394-7.571 7.581-7.571s7.58 3.39 7.58 7.571c0 4.182-3.393 7.572-7.58 7.572s-7.58-3.39-7.58-7.572zm-30.322 121.143c0-4.181 3.394-7.571 7.58-7.571 4.187 0 7.581 3.39 7.581 7.571 0 4.182-3.394 7.572-7.58 7.572-4.187 0-7.581-3.39-7.581-7.572zm0 151.429c0-4.182 3.394-7.572 7.58-7.572 4.187 0 7.581 3.39 7.581 7.572 0 4.181-3.394 7.571-7.58 7.571-4.187 0-7.581-3.39-7.581-7.571zm0-181.715c0-4.181 3.394-7.571 7.58-7.571 4.187 0 7.581 3.39 7.581 7.571 0 4.182-3.394 7.572-7.58 7.572-4.187 0-7.581-3.39-7.581-7.572zm0 90.858c0-4.182 3.394-7.572 7.58-7.572 4.187 0 7.581 3.39 7.581 7.572 0 4.181-3.394 7.571-7.58 7.571-4.187 0-7.581-3.39-7.581-7.571zm0-121.143c0-4.182 3.394-7.572 7.58-7.572 4.187 0 7.581 3.39 7.581 7.572 0 4.181-3.394 7.571-7.58 7.571-4.187 0-7.581-3.39-7.581-7.571zm0 181.714c0-4.182 3.394-7.571 7.58-7.571 4.187 0 7.581 3.39 7.581 7.571 0 4.182-3.394 7.571-7.58 7.571-4.187 0-7.581-3.39-7.581-7.571zm0-212c0-4.182 3.394-7.571 7.58-7.571 4.187 0 7.581 3.39 7.581 7.571 0 4.182-3.394 7.571-7.58 7.571-4.187 0-7.581-3.39-7.581-7.571zm0 121.143c0-4.182 3.394-7.572 7.58-7.572 4.187 0 7.581 3.39 7.581 7.572 0 4.181-3.394 7.571-7.58 7.571-4.187 0-7.581-3.39-7.581-7.571zm0-151.429c0-4.181 3.394-7.571 7.58-7.571 4.187 0 7.581 3.39 7.581 7.571 0 4.182-3.394 7.572-7.58 7.572-4.187 0-7.581-3.39-7.581-7.572zm0 212c0-4.181 3.394-7.571 7.58-7.571 4.187 0 7.581 3.39 7.581 7.571 0 4.182-3.394 7.572-7.58 7.572-4.187 0-7.581-3.39-7.581-7.572zm-30.323-30.285c0-4.182 3.394-7.572 7.58-7.572 4.188 0 7.582 3.39 7.582 7.572 0 4.181-3.394 7.571-7.581 7.571s-7.58-3.39-7.58-7.571zm0-121.143c0-4.182 3.394-7.572 7.58-7.572 4.188 0 7.582 3.39 7.582 7.572 0 4.181-3.394 7.571-7.581 7.571s-7.58-3.39-7.58-7.571zm0 90.857c0-4.182 3.394-7.572 7.58-7.572 4.188 0 7.582 3.39 7.582 7.572 0 4.181-3.394 7.571-7.581 7.571s-7.58-3.39-7.58-7.571zm0-30.286c0-4.181 3.394-7.571 7.58-7.571 4.188 0 7.582 3.39 7.582 7.571 0 4.182-3.394 7.572-7.581 7.572s-7.58-3.39-7.58-7.572zm0-90.857c0-4.182 3.394-7.571 7.58-7.571 4.188 0 7.582 3.39 7.582 7.571 0 4.182-3.394 7.571-7.581 7.571s-7.58-3.39-7.58-7.571zm0 242.286c0-4.182 3.394-7.572 7.58-7.572 4.188 0 7.582 3.39 7.582 7.572 0 4.181-3.394 7.571-7.581 7.571s-7.58-3.39-7.58-7.571zm0-30.286c0-4.182 3.394-7.571 7.58-7.571 4.188 0 7.582 3.39 7.582 7.571 0 4.182-3.394 7.571-7.581 7.571s-7.58-3.39-7.58-7.571zm0-242.286c0-4.181 3.394-7.571 7.58-7.571 4.188 0 7.582 3.39 7.582 7.571 0 4.182-3.394 7.572-7.581 7.572s-7.58-3.39-7.58-7.572zm0 90.857c0-4.181 3.394-7.571 7.58-7.571 4.188 0 7.582 3.39 7.582 7.571 0 4.182-3.394 7.572-7.581 7.572s-7.58-3.39-7.58-7.572zm0 121.143c0-4.181 3.394-7.571 7.58-7.571 4.188 0 7.582 3.39 7.582 7.571 0 4.182-3.394 7.572-7.581 7.572s-7.58-3.39-7.58-7.572zm-30.322-60.571c0-4.182 3.394-7.572 7.58-7.572 4.187 0 7.581 3.39 7.581 7.572 0 4.181-3.394 7.571-7.58 7.571-4.187 0-7.581-3.39-7.581-7.571zm0-30.286c0-4.181 3.394-7.571 7.58-7.571 4.187 0 7.581 3.39 7.581 7.571 0 4.182-3.394 7.572-7.58 7.572-4.187 0-7.581-3.39-7.581-7.572zm0-30.286c0-4.181 3.394-7.571 7.58-7.571 4.187 0 7.581 3.39 7.581 7.571 0 4.182-3.394 7.572-7.58 7.572-4.187 0-7.581-3.39-7.581-7.572zm0 181.715c0-4.182 3.394-7.572 7.58-7.572 4.187 0 7.581 3.39 7.581 7.572 0 4.181-3.394 7.571-7.58 7.571-4.187 0-7.581-3.39-7.581-7.571zm0-212c0-4.182 3.394-7.572 7.58-7.572 4.187 0 7.581 3.39 7.581 7.572 0 4.181-3.394 7.571-7.58 7.571-4.187 0-7.581-3.39-7.581-7.571zm0 181.714c0-4.182 3.394-7.571 7.58-7.571 4.187 0 7.581 3.39 7.581 7.571 0 4.182-3.394 7.571-7.58 7.571-4.187 0-7.581-3.39-7.581-7.571zm0-212c0-4.182 3.394-7.571 7.58-7.571 4.187 0 7.581 3.39 7.581 7.571 0 4.182-3.394 7.571-7.58 7.571-4.187 0-7.581-3.39-7.581-7.571zm0 181.714c0-4.181 3.394-7.571 7.58-7.571 4.187 0 7.581 3.39 7.581 7.571 0 4.182-3.394 7.572-7.58 7.572-4.187 0-7.581-3.39-7.581-7.572zm0-212c0-4.181 3.394-7.571 7.58-7.571 4.187 0 7.581 3.39 7.581 7.571 0 4.182-3.394 7.572-7.58 7.572-4.187 0-7.581-3.39-7.581-7.572zm0 181.715c0-4.182 3.394-7.572 7.58-7.572 4.187 0 7.581 3.39 7.581 7.572 0 4.181-3.394 7.571-7.58 7.571-4.187 0-7.581-3.39-7.581-7.571zm-30.323-90.858c0-4.181 3.394-7.571 7.58-7.571 4.187 0 7.581 3.39 7.581 7.571 0 4.182-3.394 7.572-7.58 7.572-4.187 0-7.58-3.39-7.58-7.572zm0 151.429c0-4.182 3.394-7.571 7.58-7.571 4.187 0 7.581 3.39 7.581 7.571 0 4.182-3.394 7.571-7.58 7.571-4.187 0-7.58-3.39-7.58-7.571zm0-30.286c0-4.181 3.394-7.571 7.58-7.571 4.187 0 7.581 3.39 7.581 7.571 0 4.182-3.394 7.572-7.58 7.572-4.187 0-7.58-3.39-7.58-7.572zm0-60.571c0-4.182 3.394-7.572 7.58-7.572 4.187 0 7.581 3.39 7.581 7.572 0 4.181-3.394 7.571-7.58 7.571-4.187 0-7.58-3.39-7.58-7.571zm0 121.143c0-4.182 3.394-7.572 7.58-7.572 4.187 0 7.581 3.39 7.581 7.572 0 4.181-3.394 7.571-7.58 7.571-4.187 0-7.58-3.39-7.58-7.571zm0-272.572c0-4.181 3.394-7.571 7.58-7.571 4.187 0 7.581 3.39 7.581 7.571 0 4.182-3.394 7.572-7.58 7.572-4.187 0-7.58-3.39-7.58-7.572zm0 121.143c0-4.181 3.394-7.571 7.58-7.571 4.187 0 7.581 3.39 7.581 7.571 0 4.182-3.394 7.572-7.58 7.572-4.187 0-7.58-3.39-7.58-7.572zm0-60.571c0-4.182 3.394-7.572 7.58-7.572 4.187 0 7.581 3.39 7.581 7.572 0 4.181-3.394 7.571-7.58 7.571-4.187 0-7.58-3.39-7.58-7.571zm0 121.143c0-4.182 3.394-7.572 7.58-7.572 4.187 0 7.581 3.39 7.581 7.572 0 4.181-3.394 7.571-7.58 7.571-4.187 0-7.58-3.39-7.58-7.571zm0-151.429c0-4.182 3.394-7.571 7.58-7.571 4.187 0 7.581 3.39 7.581 7.571 0 4.182-3.394 7.571-7.58 7.571-4.187 0-7.58-3.39-7.58-7.571zm-30.322 242.286c0-4.182 3.393-7.572 7.58-7.572s7.58 3.39 7.58 7.572c0 4.181-3.393 7.571-7.58 7.571s-7.58-3.39-7.58-7.571zm0-212c0-4.182 3.393-7.572 7.58-7.572s7.58 3.39 7.58 7.572c0 4.181-3.393 7.571-7.58 7.571s-7.58-3.39-7.58-7.571zm0 181.714c0-4.182 3.393-7.571 7.58-7.571s7.58 3.39 7.58 7.571c0 4.182-3.393 7.571-7.58 7.571s-7.58-3.39-7.58-7.571zm0-30.286c0-4.181 3.393-7.571 7.58-7.571s7.58 3.39 7.58 7.571c0 4.182-3.393 7.572-7.58 7.572s-7.58-3.39-7.58-7.572zm0-181.714c0-4.182 3.393-7.571 7.58-7.571s7.58 3.39 7.58 7.571c0 4.182-3.393 7.571-7.58 7.571s-7.58-3.39-7.58-7.571zm0 151.429c0-4.182 3.393-7.572 7.58-7.572s7.58 3.39 7.58 7.572c0 4.181-3.393 7.571-7.58 7.571s-7.58-3.39-7.58-7.571zm0-30.286c0-4.182 3.393-7.572 7.58-7.572s7.58 3.39 7.58 7.572c0 4.181-3.393 7.571-7.58 7.571s-7.58-3.39-7.58-7.571zm0-151.429c0-4.181 3.393-7.571 7.58-7.571s7.58 3.39 7.58 7.571c0 4.182-3.393 7.572-7.58 7.572s-7.58-3.39-7.58-7.572zm0 121.143c0-4.181 3.393-7.571 7.58-7.571s7.58 3.39 7.58 7.571c0 4.182-3.393 7.572-7.58 7.572s-7.58-3.39-7.58-7.572zm0-30.286c0-4.181 3.393-7.571 7.58-7.571s7.58 3.39 7.58 7.571c0 4.182-3.393 7.572-7.58 7.572s-7.58-3.39-7.58-7.572zm-30.323 181.715c0-4.182 3.394-7.572 7.58-7.572 4.187 0 7.581 3.39 7.581 7.572 0 4.181-3.394 7.571-7.58 7.571-4.187 0-7.581-3.39-7.581-7.571zm0-30.286c0-4.182 3.394-7.571 7.58-7.571 4.187 0 7.581 3.39 7.581 7.571 0 4.182-3.394 7.571-7.58 7.571-4.187 0-7.581-3.39-7.581-7.571zm0-30.286c0-4.181 3.394-7.571 7.58-7.571 4.187 0 7.581 3.39 7.581 7.571 0 4.182-3.394 7.572-7.58 7.572-4.187 0-7.581-3.39-7.581-7.572zm0-30.285c0-4.182 3.394-7.572 7.58-7.572 4.187 0 7.581 3.39 7.581 7.572 0 4.181-3.394 7.571-7.58 7.571-4.187 0-7.581-3.39-7.581-7.571zm0-30.286c0-4.182 3.394-7.572 7.58-7.572 4.187 0 7.581 3.39 7.581 7.572 0 4.181-3.394 7.571-7.58 7.571-4.187 0-7.581-3.39-7.581-7.571zm0-30.286c0-4.181 3.394-7.571 7.58-7.571 4.187 0 7.581 3.39 7.581 7.571 0 4.182-3.394 7.572-7.58 7.572-4.187 0-7.581-3.39-7.581-7.572zm0-30.286c0-4.181 3.394-7.571 7.58-7.571 4.187 0 7.581 3.39 7.581 7.571 0 4.182-3.394 7.572-7.58 7.572-4.187 0-7.581-3.39-7.581-7.572zm0-30.285c0-4.182 3.394-7.572 7.58-7.572 4.187 0 7.581 3.39 7.581 7.572 0 4.181-3.394 7.571-7.58 7.571-4.187 0-7.581-3.39-7.581-7.571zm0-30.286c0-4.182 3.394-7.571 7.58-7.571 4.187 0 7.581 3.39 7.581 7.571 0 4.182-3.394 7.571-7.58 7.571-4.187 0-7.581-3.39-7.581-7.571zm0-30.286c0-4.181 3.394-7.571 7.58-7.571 4.187 0 7.581 3.39 7.581 7.571 0 4.182-3.394 7.572-7.58 7.572-4.187 0-7.581-3.39-7.581-7.572zm-30.323 121.143c0-4.181 3.394-7.571 7.581-7.571s7.58 3.39 7.58 7.571c0 4.182-3.393 7.572-7.58 7.572s-7.58-3.39-7.58-7.572zm0-60.571c0-4.182 3.394-7.572 7.581-7.572s7.58 3.39 7.58 7.572c0 4.181-3.393 7.571-7.58 7.571s-7.58-3.39-7.58-7.571zm0 90.857c0-4.182 3.394-7.572 7.581-7.572s7.58 3.39 7.58 7.572c0 4.181-3.393 7.571-7.58 7.571s-7.58-3.39-7.58-7.571zm0-60.572c0-4.181 3.394-7.571 7.581-7.571s7.58 3.39 7.58 7.571c0 4.182-3.393 7.572-7.58 7.572s-7.58-3.39-7.58-7.572zm0-60.571c0-4.182 3.394-7.571 7.581-7.571s7.58 3.39 7.58 7.571c0 4.182-3.393 7.571-7.58 7.571s-7.58-3.39-7.58-7.571zm0 151.429c0-4.182 3.394-7.572 7.581-7.572s7.58 3.39 7.58 7.572c0 4.181-3.393 7.571-7.58 7.571s-7.58-3.39-7.58-7.571zm0 90.857c0-4.182 3.394-7.572 7.581-7.572s7.58 3.39 7.58 7.572c0 4.181-3.393 7.571-7.58 7.571s-7.58-3.39-7.58-7.571zm0-30.286c0-4.182 3.394-7.571 7.581-7.571s7.58 3.39 7.58 7.571c0 4.182-3.393 7.571-7.58 7.571s-7.58-3.39-7.58-7.571zm0-30.286c0-4.181 3.394-7.571 7.581-7.571s7.58 3.39 7.58 7.571c0 4.182-3.393 7.572-7.58 7.572s-7.58-3.39-7.58-7.572zm0-212c0-4.181 3.394-7.571 7.581-7.571s7.58 3.39 7.58 7.571c0 4.182-3.393 7.572-7.58 7.572s-7.58-3.39-7.58-7.572zm-30.322 60.572c0-4.182 3.394-7.572 7.58-7.572 4.187 0 7.581 3.39 7.581 7.572 0 4.181-3.394 7.571-7.58 7.571-4.187 0-7.581-3.39-7.581-7.571zm0-30.286c0-4.182 3.394-7.571 7.58-7.571 4.187 0 7.581 3.39 7.581 7.571 0 4.182-3.394 7.571-7.58 7.571-4.187 0-7.581-3.39-7.581-7.571zm0 181.714c0-4.181 3.394-7.571 7.58-7.571 4.187 0 7.581 3.39 7.581 7.571 0 4.182-3.394 7.572-7.58 7.572-4.187 0-7.581-3.39-7.581-7.572zm0 30.286c0-4.182 3.394-7.571 7.58-7.571 4.187 0 7.581 3.39 7.581 7.571 0 4.182-3.394 7.571-7.58 7.571-4.187 0-7.581-3.39-7.581-7.571zm0 30.286c0-4.182 3.394-7.572 7.58-7.572 4.187 0 7.581 3.39 7.581 7.572 0 4.181-3.394 7.571-7.58 7.571-4.187 0-7.581-3.39-7.581-7.571zm0-90.857c0-4.182 3.394-7.572 7.58-7.572 4.187 0 7.581 3.39 7.581 7.572 0 4.181-3.394 7.571-7.58 7.571-4.187 0-7.581-3.39-7.581-7.571zm0-181.715c0-4.181 3.394-7.571 7.58-7.571 4.187 0 7.581 3.39 7.581 7.571 0 4.182-3.394 7.572-7.58 7.572-4.187 0-7.581-3.39-7.581-7.572zm0 151.429c0-4.182 3.394-7.572 7.58-7.572 4.187 0 7.581 3.39 7.581 7.572 0 4.181-3.394 7.571-7.58 7.571-4.187 0-7.581-3.39-7.581-7.571zm0-30.286c0-4.181 3.394-7.571 7.58-7.571 4.187 0 7.581 3.39 7.581 7.571 0 4.182-3.394 7.572-7.58 7.572-4.187 0-7.581-3.39-7.581-7.572zm0-30.286c0-4.181 3.394-7.571 7.58-7.571 4.187 0 7.581 3.39 7.581 7.571 0 4.182-3.394 7.572-7.58 7.572-4.187 0-7.581-3.39-7.581-7.572zm-30.323 60.572c0-4.182 3.394-7.572 7.58-7.572 4.188 0 7.581 3.39 7.581 7.572 0 4.181-3.393 7.571-7.58 7.571s-7.58-3.39-7.58-7.571zm0-90.857c0-4.182 3.394-7.572 7.58-7.572 4.188 0 7.581 3.39 7.581 7.572 0 4.181-3.393 7.571-7.58 7.571s-7.58-3.39-7.58-7.571zm0 60.571c0-4.181 3.394-7.571 7.58-7.571 4.188 0 7.581 3.39 7.581 7.571 0 4.182-3.393 7.572-7.58 7.572s-7.58-3.39-7.58-7.572zm0 60.572c0-4.182 3.394-7.572 7.58-7.572 4.188 0 7.581 3.39 7.581 7.572 0 4.181-3.393 7.571-7.58 7.571s-7.58-3.39-7.58-7.571zm0 90.857c0-4.182 3.394-7.572 7.58-7.572 4.188 0 7.581 3.39 7.581 7.572 0 4.181-3.393 7.571-7.58 7.571s-7.58-3.39-7.58-7.571zm0-30.286c0-4.182 3.394-7.571 7.58-7.571 4.188 0 7.581 3.39 7.581 7.571 0 4.182-3.393 7.571-7.58 7.571s-7.58-3.39-7.58-7.571zm0-151.429c0-4.181 3.394-7.571 7.58-7.571 4.188 0 7.581 3.39 7.581 7.571 0 4.182-3.393 7.572-7.58 7.572s-7.58-3.39-7.58-7.572zm0-90.857c0-4.181 3.394-7.571 7.58-7.571 4.188 0 7.581 3.39 7.581 7.571 0 4.182-3.393 7.572-7.58 7.572s-7.58-3.39-7.58-7.572zm0 30.286c0-4.182 3.394-7.571 7.58-7.571 4.188 0 7.581 3.39 7.581 7.571 0 4.182-3.393 7.571-7.58 7.571s-7.58-3.39-7.58-7.571zm0 181.714c0-4.181 3.394-7.571 7.58-7.571 4.188 0 7.581 3.39 7.581 7.571 0 4.182-3.393 7.572-7.58 7.572s-7.58-3.39-7.58-7.572zm-30.322-60.571c0-4.182 3.394-7.572 7.58-7.572 4.187 0 7.58 3.39 7.58 7.572 0 4.181-3.393 7.571-7.58 7.571-4.186 0-7.58-3.39-7.58-7.571zm0-90.857c0-4.182 3.394-7.572 7.58-7.572 4.187 0 7.58 3.39 7.58 7.572 0 4.181-3.393 7.571-7.58 7.571-4.186 0-7.58-3.39-7.58-7.571zm0 60.571c0-4.181 3.394-7.571 7.58-7.571 4.187 0 7.58 3.39 7.58 7.571 0 4.182-3.393 7.572-7.58 7.572-4.186 0-7.58-3.39-7.58-7.572zm0 60.572c0-4.182 3.394-7.572 7.58-7.572 4.187 0 7.58 3.39 7.58 7.572 0 4.181-3.393 7.571-7.58 7.571-4.186 0-7.58-3.39-7.58-7.571zm0 30.285c0-4.181 3.394-7.571 7.58-7.571 4.187 0 7.58 3.39 7.58 7.571 0 4.182-3.393 7.572-7.58 7.572-4.186 0-7.58-3.39-7.58-7.572zm0 30.286c0-4.182 3.394-7.571 7.58-7.571 4.187 0 7.58 3.39 7.58 7.571 0 4.182-3.393 7.571-7.58 7.571-4.186 0-7.58-3.39-7.58-7.571zm0-151.429c0-4.181 3.394-7.571 7.58-7.571 4.187 0 7.58 3.39 7.58 7.571 0 4.182-3.393 7.572-7.58 7.572-4.186 0-7.58-3.39-7.58-7.572zm0-90.857c0-4.181 3.394-7.571 7.58-7.571 4.187 0 7.58 3.39 7.58 7.571 0 4.182-3.393 7.572-7.58 7.572-4.186 0-7.58-3.39-7.58-7.572zm0 30.286c0-4.182 3.394-7.571 7.58-7.571 4.187 0 7.58 3.39 7.58 7.571 0 4.182-3.393 7.571-7.58 7.571-4.186 0-7.58-3.39-7.58-7.571zm0 242.286c0-4.182 3.394-7.572 7.58-7.572 4.187 0 7.58 3.39 7.58 7.572 0 4.181-3.393 7.571-7.58 7.571-4.186 0-7.58-3.39-7.58-7.571zm-30.323 0c0-4.182 3.394-7.572 7.58-7.572 4.187 0 7.581 3.39 7.581 7.572 0 4.181-3.394 7.571-7.58 7.571-4.187 0-7.581-3.39-7.581-7.571zm0-242.286c0-4.182 3.394-7.571 7.58-7.571 4.187 0 7.581 3.39 7.581 7.571 0 4.182-3.394 7.571-7.58 7.571-4.187 0-7.581-3.39-7.581-7.571zm0-30.286c0-4.181 3.394-7.571 7.58-7.571 4.187 0 7.581 3.39 7.581 7.571 0 4.182-3.394 7.572-7.58 7.572-4.187 0-7.581-3.39-7.581-7.572zm0 90.857c0-4.181 3.394-7.571 7.58-7.571 4.187 0 7.581 3.39 7.581 7.571 0 4.182-3.394 7.572-7.58 7.572-4.187 0-7.581-3.39-7.581-7.572zm0 151.429c0-4.182 3.394-7.571 7.58-7.571 4.187 0 7.581 3.39 7.581 7.571 0 4.182-3.394 7.571-7.58 7.571-4.187 0-7.581-3.39-7.581-7.571zm0-30.286c0-4.181 3.394-7.571 7.58-7.571 4.187 0 7.581 3.39 7.581 7.571 0 4.182-3.394 7.572-7.58 7.572-4.187 0-7.581-3.39-7.581-7.572zm0-30.285c0-4.182 3.394-7.572 7.58-7.572 4.187 0 7.581 3.39 7.581 7.572 0 4.181-3.394 7.571-7.58 7.571-4.187 0-7.581-3.39-7.581-7.571zm0-30.286c0-4.182 3.394-7.572 7.58-7.572 4.187 0 7.581 3.39 7.581 7.572 0 4.181-3.394 7.571-7.58 7.571-4.187 0-7.581-3.39-7.581-7.571zm0-90.857c0-4.182 3.394-7.572 7.58-7.572 4.187 0 7.581 3.39 7.581 7.572 0 4.181-3.394 7.571-7.58 7.571-4.187 0-7.581-3.39-7.581-7.571zm0 60.571c0-4.181 3.394-7.571 7.58-7.571 4.187 0 7.581 3.39 7.581 7.571 0 4.182-3.394 7.572-7.58 7.572-4.187 0-7.581-3.39-7.581-7.572zM75.806 295.286c0-4.182 3.394-7.572 7.581-7.572s7.58 3.39 7.58 7.572c0 4.181-3.393 7.571-7.58 7.571s-7.58-3.39-7.58-7.571zm0-121.143c0-4.182 3.394-7.572 7.581-7.572s7.58 3.39 7.58 7.572c0 4.181-3.393 7.571-7.58 7.571s-7.58-3.39-7.58-7.571zm0-151.429c0-4.181 3.394-7.571 7.581-7.571s7.58 3.39 7.58 7.571c0 4.182-3.393 7.572-7.58 7.572s-7.58-3.39-7.58-7.572zm0 90.857c0-4.181 3.394-7.571 7.581-7.571s7.58 3.39 7.58 7.571c0 4.182-3.393 7.572-7.58 7.572s-7.58-3.39-7.58-7.572zm0 30.286c0-4.181 3.394-7.571 7.581-7.571s7.58 3.39 7.58 7.571c0 4.182-3.393 7.572-7.58 7.572s-7.58-3.39-7.58-7.572zm0-90.857c0-4.182 3.394-7.571 7.581-7.571s7.58 3.39 7.58 7.571c0 4.182-3.393 7.571-7.58 7.571s-7.58-3.39-7.58-7.571zm0 151.429c0-4.182 3.394-7.572 7.581-7.572s7.58 3.39 7.58 7.572c0 4.181-3.393 7.571-7.58 7.571s-7.58-3.39-7.58-7.571zm0 60.571c0-4.182 3.394-7.571 7.581-7.571s7.58 3.39 7.58 7.571c0 4.182-3.393 7.571-7.58 7.571s-7.58-3.39-7.58-7.571zm0-30.286c0-4.181 3.394-7.571 7.581-7.571s7.58 3.39 7.58 7.571c0 4.182-3.393 7.572-7.58 7.572s-7.58-3.39-7.58-7.572zm0-151.428c0-4.182 3.394-7.572 7.581-7.572s7.58 3.39 7.58 7.572c0 4.181-3.393 7.571-7.58 7.571s-7.58-3.39-7.58-7.571zm-30.322 212c0-4.182 3.394-7.572 7.58-7.572 4.187 0 7.581 3.39 7.581 7.572 0 4.181-3.394 7.571-7.58 7.571-4.187 0-7.581-3.39-7.581-7.571zm0-242.286c0-4.182 3.394-7.571 7.58-7.571 4.187 0 7.581 3.39 7.581 7.571 0 4.182-3.394 7.571-7.58 7.571-4.187 0-7.581-3.39-7.581-7.571zm0-30.286c0-4.181 3.394-7.571 7.58-7.571 4.187 0 7.581 3.39 7.581 7.571 0 4.182-3.394 7.572-7.58 7.572-4.187 0-7.581-3.39-7.581-7.572zm0 212c0-4.181 3.394-7.571 7.58-7.571 4.187 0 7.581 3.39 7.581 7.571 0 4.182-3.394 7.572-7.58 7.572-4.187 0-7.581-3.39-7.581-7.572zm0-30.285c0-4.182 3.394-7.572 7.58-7.572 4.187 0 7.581 3.39 7.581 7.572 0 4.181-3.394 7.571-7.58 7.571-4.187 0-7.581-3.39-7.581-7.571zm0-30.286c0-4.182 3.394-7.572 7.58-7.572 4.187 0 7.581 3.39 7.581 7.572 0 4.181-3.394 7.571-7.58 7.571-4.187 0-7.581-3.39-7.581-7.571zm0-30.286c0-4.181 3.394-7.571 7.58-7.571 4.187 0 7.581 3.39 7.581 7.571 0 4.182-3.394 7.572-7.58 7.572-4.187 0-7.581-3.39-7.581-7.572zm0-30.286c0-4.181 3.394-7.571 7.58-7.571 4.187 0 7.581 3.39 7.581 7.571 0 4.182-3.394 7.572-7.58 7.572-4.187 0-7.581-3.39-7.581-7.572zm0-30.285c0-4.182 3.394-7.572 7.58-7.572 4.187 0 7.581 3.39 7.581 7.572 0 4.181-3.394 7.571-7.58 7.571-4.187 0-7.581-3.39-7.581-7.571zm0 181.714c0-4.182 3.394-7.571 7.58-7.571 4.187 0 7.581 3.39 7.581 7.571 0 4.182-3.394 7.571-7.58 7.571-4.187 0-7.581-3.39-7.581-7.571zM15.16 295.286c0-4.182 3.394-7.572 7.58-7.572 4.188 0 7.582 3.39 7.582 7.572 0 4.181-3.394 7.571-7.581 7.571s-7.58-3.39-7.58-7.571zm0-30.286c0-4.182 3.394-7.571 7.58-7.571 4.188 0 7.582 3.39 7.582 7.571 0 4.182-3.394 7.571-7.581 7.571s-7.58-3.39-7.58-7.571zm0-30.286c0-4.181 3.394-7.571 7.58-7.571 4.188 0 7.582 3.39 7.582 7.571 0 4.182-3.394 7.572-7.581 7.572s-7.58-3.39-7.58-7.572zm0-30.285c0-4.182 3.394-7.572 7.58-7.572 4.188 0 7.582 3.39 7.582 7.572 0 4.181-3.394 7.571-7.581 7.571s-7.58-3.39-7.58-7.571zm0-30.286c0-4.182 3.394-7.572 7.58-7.572 4.188 0 7.582 3.39 7.582 7.572 0 4.181-3.394 7.571-7.581 7.571s-7.58-3.39-7.58-7.571zm0-30.286c0-4.181 3.394-7.571 7.58-7.571 4.188 0 7.582 3.39 7.582 7.571 0 4.182-3.394 7.572-7.581 7.572s-7.58-3.39-7.58-7.572zm0-30.286c0-4.181 3.394-7.571 7.58-7.571 4.188 0 7.582 3.39 7.582 7.571 0 4.182-3.394 7.572-7.581 7.572s-7.58-3.39-7.58-7.572zm0-30.285c0-4.182 3.394-7.572 7.58-7.572 4.188 0 7.582 3.39 7.582 7.572 0 4.181-3.394 7.571-7.581 7.571s-7.58-3.39-7.58-7.571zm0-30.286c0-4.182 3.394-7.571 7.58-7.571 4.188 0 7.582 3.39 7.582 7.571 0 4.182-3.394 7.571-7.581 7.571s-7.58-3.39-7.58-7.571zm0-30.286c0-4.181 3.394-7.571 7.58-7.571 4.188 0 7.582 3.39 7.582 7.571 0 4.182-3.394 7.572-7.581 7.572s-7.58-3.39-7.58-7.572z"/>
    </g>
</svg>
