<svg xmlns="http://www.w3.org/2000/svg" width="720" height="506" viewBox="0 0 720 506">
    <g fill="none" fill-rule="evenodd" transform="matrix(0 -1 1 0 0 521)">
        <circle cx="477.5" cy="137.5" r="33.5" stroke="#365369" stroke-width="20"/>
        <g opacity=".337">
            <path d="M0 96h318v470H0z"/>
            <path fill="#EBEBEB" fill-rule="nonzero" d="M22.714 535.677c4.182 0 7.572 3.394 7.572 7.581s-3.39 7.58-7.572 7.58c-4.181 0-7.571-3.393-7.571-7.58s3.39-7.58 7.571-7.58zm30.286 0c4.182 0 7.571 3.394 7.571 7.581s-3.39 7.58-7.571 7.58c-4.182 0-7.571-3.393-7.571-7.58s3.39-7.58 7.571-7.58zm30.286 0c4.181 0 7.571 3.394 7.571 7.581s-3.39 7.58-7.571 7.58c-4.182 0-7.572-3.393-7.572-7.58s3.39-7.58 7.572-7.58zm30.285 0c4.182 0 7.572 3.394 7.572 7.581s-3.39 7.58-7.572 7.58c-4.181 0-7.571-3.393-7.571-7.58s3.39-7.58 7.571-7.58zm30.286 0c4.182 0 7.572 3.394 7.572 7.581s-3.39 7.58-7.572 7.58c-4.181 0-7.571-3.393-7.571-7.58s3.39-7.58 7.571-7.58zm30.286 0c4.181 0 7.571 3.394 7.571 7.581s-3.39 7.58-7.571 7.58c-4.182 0-7.572-3.393-7.572-7.58s3.39-7.58 7.572-7.58zm30.286 0c4.181 0 7.571 3.394 7.571 7.581s-3.39 7.58-7.571 7.58c-4.182 0-7.572-3.393-7.572-7.58s3.39-7.58 7.572-7.58zm30.285 0c4.182 0 7.572 3.394 7.572 7.581s-3.39 7.58-7.572 7.58c-4.181 0-7.571-3.393-7.571-7.58s3.39-7.58 7.571-7.58zm30.286 0c4.182 0 7.571 3.394 7.571 7.581s-3.39 7.58-7.571 7.58c-4.182 0-7.571-3.393-7.571-7.58s3.39-7.58 7.571-7.58zm30.286 0c4.181 0 7.571 3.394 7.571 7.581s-3.39 7.58-7.571 7.58c-4.182 0-7.572-3.393-7.572-7.58s3.39-7.58 7.572-7.58zm-121.143-30.322c4.181 0 7.571 3.394 7.571 7.58 0 4.187-3.39 7.581-7.571 7.581-4.182 0-7.572-3.394-7.572-7.58 0-4.187 3.39-7.581 7.572-7.581zm-151.429 0c4.182 0 7.572 3.394 7.572 7.58 0 4.187-3.39 7.581-7.572 7.581-4.181 0-7.571-3.394-7.571-7.58 0-4.187 3.39-7.581 7.571-7.581zm181.715 0c4.181 0 7.571 3.394 7.571 7.58 0 4.187-3.39 7.581-7.571 7.581-4.182 0-7.572-3.394-7.572-7.58 0-4.187 3.39-7.581 7.572-7.581zm-90.858 0c4.182 0 7.572 3.394 7.572 7.58 0 4.187-3.39 7.581-7.572 7.581-4.181 0-7.571-3.394-7.571-7.58 0-4.187 3.39-7.581 7.571-7.581zm121.143 0c4.182 0 7.572 3.394 7.572 7.58 0 4.187-3.39 7.581-7.572 7.581-4.181 0-7.571-3.394-7.571-7.58 0-4.187 3.39-7.581 7.571-7.581zm-181.714 0c4.182 0 7.571 3.394 7.571 7.58 0 4.187-3.39 7.581-7.571 7.581-4.182 0-7.571-3.394-7.571-7.58 0-4.187 3.39-7.581 7.571-7.581zm212 0c4.182 0 7.571 3.394 7.571 7.58 0 4.187-3.39 7.581-7.571 7.581-4.182 0-7.571-3.394-7.571-7.58 0-4.187 3.39-7.581 7.571-7.581zm-121.143 0c4.182 0 7.572 3.394 7.572 7.58 0 4.187-3.39 7.581-7.572 7.581-4.181 0-7.571-3.394-7.571-7.58 0-4.187 3.39-7.581 7.571-7.581zm151.429 0c4.181 0 7.571 3.394 7.571 7.58 0 4.187-3.39 7.581-7.571 7.581-4.182 0-7.572-3.394-7.572-7.58 0-4.187 3.39-7.581 7.572-7.581zm-212 0c4.181 0 7.571 3.394 7.571 7.58 0 4.187-3.39 7.581-7.571 7.581-4.182 0-7.572-3.394-7.572-7.58 0-4.187 3.39-7.581 7.572-7.581zm30.285-30.323c4.182 0 7.572 3.394 7.572 7.58 0 4.188-3.39 7.582-7.572 7.582-4.181 0-7.571-3.394-7.571-7.581s3.39-7.58 7.571-7.58zm121.143 0c4.182 0 7.572 3.394 7.572 7.58 0 4.188-3.39 7.582-7.572 7.582-4.181 0-7.571-3.394-7.571-7.581s3.39-7.58 7.571-7.58zm-90.857 0c4.182 0 7.572 3.394 7.572 7.58 0 4.188-3.39 7.582-7.572 7.582-4.181 0-7.571-3.394-7.571-7.581s3.39-7.58 7.571-7.58zm30.286 0c4.181 0 7.571 3.394 7.571 7.58 0 4.188-3.39 7.582-7.571 7.582-4.182 0-7.572-3.394-7.572-7.581s3.39-7.58 7.572-7.58zm90.857 0c4.182 0 7.571 3.394 7.571 7.58 0 4.188-3.39 7.582-7.571 7.582-4.182 0-7.571-3.394-7.571-7.581s3.39-7.58 7.571-7.58zm-242.286 0c4.182 0 7.572 3.394 7.572 7.58 0 4.188-3.39 7.582-7.572 7.582-4.181 0-7.571-3.394-7.571-7.581s3.39-7.58 7.571-7.58zm30.286 0c4.182 0 7.571 3.394 7.571 7.58 0 4.188-3.39 7.582-7.571 7.582-4.182 0-7.571-3.394-7.571-7.581s3.39-7.58 7.571-7.58zm242.286 0c4.181 0 7.571 3.394 7.571 7.58 0 4.188-3.39 7.582-7.571 7.582-4.182 0-7.572-3.394-7.572-7.581s3.39-7.58 7.572-7.58zm-90.857 0c4.181 0 7.571 3.394 7.571 7.58 0 4.188-3.39 7.582-7.571 7.582-4.182 0-7.572-3.394-7.572-7.581s3.39-7.58 7.572-7.58zm-121.143 0c4.181 0 7.571 3.394 7.571 7.58 0 4.188-3.39 7.582-7.571 7.582-4.182 0-7.572-3.394-7.572-7.581s3.39-7.58 7.572-7.58zm60.571-30.322c4.182 0 7.572 3.394 7.572 7.58 0 4.187-3.39 7.581-7.572 7.581-4.181 0-7.571-3.394-7.571-7.58 0-4.187 3.39-7.581 7.571-7.581zm30.286 0c4.181 0 7.571 3.394 7.571 7.58 0 4.187-3.39 7.581-7.571 7.581-4.182 0-7.572-3.394-7.572-7.58 0-4.187 3.39-7.581 7.572-7.581zm30.286 0c4.181 0 7.571 3.394 7.571 7.58 0 4.187-3.39 7.581-7.571 7.581-4.182 0-7.572-3.394-7.572-7.58 0-4.187 3.39-7.581 7.572-7.581zm-181.715 0c4.182 0 7.572 3.394 7.572 7.58 0 4.187-3.39 7.581-7.572 7.581-4.181 0-7.571-3.394-7.571-7.58 0-4.187 3.39-7.581 7.571-7.581zm212 0c4.182 0 7.572 3.394 7.572 7.58 0 4.187-3.39 7.581-7.572 7.581-4.181 0-7.571-3.394-7.571-7.58 0-4.187 3.39-7.581 7.571-7.581zM53 444.71c4.182 0 7.571 3.394 7.571 7.58 0 4.187-3.39 7.581-7.571 7.581-4.182 0-7.571-3.394-7.571-7.58 0-4.187 3.39-7.581 7.571-7.581zm212 0c4.182 0 7.571 3.394 7.571 7.58 0 4.187-3.39 7.581-7.571 7.581-4.182 0-7.571-3.394-7.571-7.58 0-4.187 3.39-7.581 7.571-7.581zm-181.714 0c4.181 0 7.571 3.394 7.571 7.58 0 4.187-3.39 7.581-7.571 7.581-4.182 0-7.572-3.394-7.572-7.58 0-4.187 3.39-7.581 7.572-7.581zm212 0c4.181 0 7.571 3.394 7.571 7.58 0 4.187-3.39 7.581-7.571 7.581-4.182 0-7.572-3.394-7.572-7.58 0-4.187 3.39-7.581 7.572-7.581zm-181.715 0c4.182 0 7.572 3.394 7.572 7.58 0 4.187-3.39 7.581-7.572 7.581-4.181 0-7.571-3.394-7.571-7.58 0-4.187 3.39-7.581 7.571-7.581zm90.858-30.323c4.181 0 7.571 3.394 7.571 7.58 0 4.187-3.39 7.581-7.571 7.581-4.182 0-7.572-3.394-7.572-7.58 0-4.187 3.39-7.58 7.572-7.58zm-151.429 0c4.182 0 7.571 3.394 7.571 7.58 0 4.187-3.39 7.581-7.571 7.581-4.182 0-7.571-3.394-7.571-7.58 0-4.187 3.39-7.58 7.571-7.58zm30.286 0c4.181 0 7.571 3.394 7.571 7.58 0 4.187-3.39 7.581-7.571 7.581-4.182 0-7.572-3.394-7.572-7.58 0-4.187 3.39-7.58 7.572-7.58zm60.571 0c4.182 0 7.572 3.394 7.572 7.58 0 4.187-3.39 7.581-7.572 7.581-4.181 0-7.571-3.394-7.571-7.58 0-4.187 3.39-7.58 7.571-7.58zm-121.143 0c4.182 0 7.572 3.394 7.572 7.58 0 4.187-3.39 7.581-7.572 7.581-4.181 0-7.571-3.394-7.571-7.58 0-4.187 3.39-7.58 7.571-7.58zm272.572 0c4.181 0 7.571 3.394 7.571 7.58 0 4.187-3.39 7.581-7.571 7.581-4.182 0-7.572-3.394-7.572-7.58 0-4.187 3.39-7.58 7.572-7.58zm-121.143 0c4.181 0 7.571 3.394 7.571 7.58 0 4.187-3.39 7.581-7.571 7.581-4.182 0-7.572-3.394-7.572-7.58 0-4.187 3.39-7.58 7.572-7.58zm60.571 0c4.182 0 7.572 3.394 7.572 7.58 0 4.187-3.39 7.581-7.572 7.581-4.181 0-7.571-3.394-7.571-7.58 0-4.187 3.39-7.58 7.571-7.58zm-121.143 0c4.182 0 7.572 3.394 7.572 7.58 0 4.187-3.39 7.581-7.572 7.581-4.181 0-7.571-3.394-7.571-7.58 0-4.187 3.39-7.58 7.571-7.58zm151.429 0c4.182 0 7.571 3.394 7.571 7.58 0 4.187-3.39 7.581-7.571 7.581-4.182 0-7.571-3.394-7.571-7.58 0-4.187 3.39-7.58 7.571-7.58zM22.714 384.065c4.182 0 7.572 3.393 7.572 7.58s-3.39 7.58-7.572 7.58c-4.181 0-7.571-3.393-7.571-7.58s3.39-7.58 7.571-7.58zm212 0c4.182 0 7.572 3.393 7.572 7.58s-3.39 7.58-7.572 7.58c-4.181 0-7.571-3.393-7.571-7.58s3.39-7.58 7.571-7.58zm-181.714 0c4.182 0 7.571 3.393 7.571 7.58s-3.39 7.58-7.571 7.58c-4.182 0-7.571-3.393-7.571-7.58s3.39-7.58 7.571-7.58zm30.286 0c4.181 0 7.571 3.393 7.571 7.58s-3.39 7.58-7.571 7.58c-4.182 0-7.572-3.393-7.572-7.58s3.39-7.58 7.572-7.58zm181.714 0c4.182 0 7.571 3.393 7.571 7.58s-3.39 7.58-7.571 7.58c-4.182 0-7.571-3.393-7.571-7.58s3.39-7.58 7.571-7.58zm-151.429 0c4.182 0 7.572 3.393 7.572 7.58s-3.39 7.58-7.572 7.58c-4.181 0-7.571-3.393-7.571-7.58s3.39-7.58 7.571-7.58zm30.286 0c4.182 0 7.572 3.393 7.572 7.58s-3.39 7.58-7.572 7.58c-4.181 0-7.571-3.393-7.571-7.58s3.39-7.58 7.571-7.58zm151.429 0c4.181 0 7.571 3.393 7.571 7.58s-3.39 7.58-7.571 7.58c-4.182 0-7.572-3.393-7.572-7.58s3.39-7.58 7.572-7.58zm-121.143 0c4.181 0 7.571 3.393 7.571 7.58s-3.39 7.58-7.571 7.58c-4.182 0-7.572-3.393-7.572-7.58s3.39-7.58 7.572-7.58zm30.286 0c4.181 0 7.571 3.393 7.571 7.58s-3.39 7.58-7.571 7.58c-4.182 0-7.572-3.393-7.572-7.58s3.39-7.58 7.572-7.58zM22.714 353.742c4.182 0 7.572 3.394 7.572 7.58 0 4.187-3.39 7.581-7.572 7.581-4.181 0-7.571-3.394-7.571-7.58 0-4.187 3.39-7.581 7.571-7.581zm30.286 0c4.182 0 7.571 3.394 7.571 7.58 0 4.187-3.39 7.581-7.571 7.581-4.182 0-7.571-3.394-7.571-7.58 0-4.187 3.39-7.581 7.571-7.581zm30.286 0c4.181 0 7.571 3.394 7.571 7.58 0 4.187-3.39 7.581-7.571 7.581-4.182 0-7.572-3.394-7.572-7.58 0-4.187 3.39-7.581 7.572-7.581zm30.285 0c4.182 0 7.572 3.394 7.572 7.58 0 4.187-3.39 7.581-7.572 7.581-4.181 0-7.571-3.394-7.571-7.58 0-4.187 3.39-7.581 7.571-7.581zm30.286 0c4.182 0 7.572 3.394 7.572 7.58 0 4.187-3.39 7.581-7.572 7.581-4.181 0-7.571-3.394-7.571-7.58 0-4.187 3.39-7.581 7.571-7.581zm30.286 0c4.181 0 7.571 3.394 7.571 7.58 0 4.187-3.39 7.581-7.571 7.581-4.182 0-7.572-3.394-7.572-7.58 0-4.187 3.39-7.581 7.572-7.581zm30.286 0c4.181 0 7.571 3.394 7.571 7.58 0 4.187-3.39 7.581-7.571 7.581-4.182 0-7.572-3.394-7.572-7.58 0-4.187 3.39-7.581 7.572-7.581zm30.285 0c4.182 0 7.572 3.394 7.572 7.58 0 4.187-3.39 7.581-7.572 7.581-4.181 0-7.571-3.394-7.571-7.58 0-4.187 3.39-7.581 7.571-7.581zm30.286 0c4.182 0 7.571 3.394 7.571 7.58 0 4.187-3.39 7.581-7.571 7.581-4.182 0-7.571-3.394-7.571-7.58 0-4.187 3.39-7.581 7.571-7.581zm30.286 0c4.181 0 7.571 3.394 7.571 7.58 0 4.187-3.39 7.581-7.571 7.581-4.182 0-7.572-3.394-7.572-7.58 0-4.187 3.39-7.581 7.572-7.581zm-121.143-30.323c4.181 0 7.571 3.394 7.571 7.581s-3.39 7.58-7.571 7.58c-4.182 0-7.572-3.393-7.572-7.58s3.39-7.58 7.572-7.58zm60.571 0c4.182 0 7.572 3.394 7.572 7.581s-3.39 7.58-7.572 7.58c-4.181 0-7.571-3.393-7.571-7.58s3.39-7.58 7.571-7.58zm-90.857 0c4.182 0 7.572 3.394 7.572 7.581s-3.39 7.58-7.572 7.58c-4.181 0-7.571-3.393-7.571-7.58s3.39-7.58 7.571-7.58zm60.572 0c4.181 0 7.571 3.394 7.571 7.581s-3.39 7.58-7.571 7.58c-4.182 0-7.572-3.393-7.572-7.58s3.39-7.58 7.572-7.58zm60.571 0c4.182 0 7.571 3.394 7.571 7.581s-3.39 7.58-7.571 7.58c-4.182 0-7.571-3.393-7.571-7.58s3.39-7.58 7.571-7.58zm-151.429 0c4.182 0 7.572 3.394 7.572 7.581s-3.39 7.58-7.572 7.58c-4.181 0-7.571-3.393-7.571-7.58s3.39-7.58 7.571-7.58zm-90.857 0c4.182 0 7.572 3.394 7.572 7.581s-3.39 7.58-7.572 7.58c-4.181 0-7.571-3.393-7.571-7.58s3.39-7.58 7.571-7.58zm30.286 0c4.182 0 7.571 3.394 7.571 7.581s-3.39 7.58-7.571 7.58c-4.182 0-7.571-3.393-7.571-7.58s3.39-7.58 7.571-7.58zm30.286 0c4.181 0 7.571 3.394 7.571 7.581s-3.39 7.58-7.571 7.58c-4.182 0-7.572-3.393-7.572-7.58s3.39-7.58 7.572-7.58zm212 0c4.181 0 7.571 3.394 7.571 7.581s-3.39 7.58-7.571 7.58c-4.182 0-7.572-3.393-7.572-7.58s3.39-7.58 7.572-7.58zm-60.572-30.322c4.182 0 7.572 3.394 7.572 7.58 0 4.187-3.39 7.581-7.572 7.581-4.181 0-7.571-3.394-7.571-7.58 0-4.187 3.39-7.581 7.571-7.581zm30.286 0c4.182 0 7.571 3.394 7.571 7.58 0 4.187-3.39 7.581-7.571 7.581-4.182 0-7.571-3.394-7.571-7.58 0-4.187 3.39-7.581 7.571-7.581zm-181.714 0c4.181 0 7.571 3.394 7.571 7.58 0 4.187-3.39 7.581-7.571 7.581-4.182 0-7.572-3.394-7.572-7.58 0-4.187 3.39-7.581 7.572-7.581zm-30.286 0c4.182 0 7.571 3.394 7.571 7.58 0 4.187-3.39 7.581-7.571 7.581-4.182 0-7.571-3.394-7.571-7.58 0-4.187 3.39-7.581 7.571-7.581zm-30.286 0c4.182 0 7.572 3.394 7.572 7.58 0 4.187-3.39 7.581-7.572 7.581-4.181 0-7.571-3.394-7.571-7.58 0-4.187 3.39-7.581 7.571-7.581zm90.857 0c4.182 0 7.572 3.394 7.572 7.58 0 4.187-3.39 7.581-7.572 7.581-4.181 0-7.571-3.394-7.571-7.58 0-4.187 3.39-7.581 7.571-7.581zm181.715 0c4.181 0 7.571 3.394 7.571 7.58 0 4.187-3.39 7.581-7.571 7.581-4.182 0-7.572-3.394-7.572-7.58 0-4.187 3.39-7.581 7.572-7.581zm-151.429 0c4.182 0 7.572 3.394 7.572 7.58 0 4.187-3.39 7.581-7.572 7.581-4.181 0-7.571-3.394-7.571-7.58 0-4.187 3.39-7.581 7.571-7.581zm30.286 0c4.181 0 7.571 3.394 7.571 7.58 0 4.187-3.39 7.581-7.571 7.581-4.182 0-7.572-3.394-7.572-7.58 0-4.187 3.39-7.581 7.572-7.581zm30.286 0c4.181 0 7.571 3.394 7.571 7.58 0 4.187-3.39 7.581-7.571 7.581-4.182 0-7.572-3.394-7.572-7.58 0-4.187 3.39-7.581 7.572-7.581zm-60.572-30.323c4.182 0 7.572 3.394 7.572 7.58 0 4.188-3.39 7.581-7.572 7.581-4.181 0-7.571-3.393-7.571-7.58s3.39-7.58 7.571-7.58zm90.857 0c4.182 0 7.572 3.394 7.572 7.58 0 4.188-3.39 7.581-7.572 7.581-4.181 0-7.571-3.393-7.571-7.58s3.39-7.58 7.571-7.58zm-60.571 0c4.181 0 7.571 3.394 7.571 7.58 0 4.188-3.39 7.581-7.571 7.581-4.182 0-7.572-3.393-7.572-7.58s3.39-7.58 7.572-7.58zm-60.572 0c4.182 0 7.572 3.394 7.572 7.58 0 4.188-3.39 7.581-7.572 7.581-4.181 0-7.571-3.393-7.571-7.58s3.39-7.58 7.571-7.58zm-90.857 0c4.182 0 7.572 3.394 7.572 7.58 0 4.188-3.39 7.581-7.572 7.581-4.181 0-7.571-3.393-7.571-7.58s3.39-7.58 7.571-7.58zm30.286 0c4.182 0 7.571 3.394 7.571 7.58 0 4.188-3.39 7.581-7.571 7.581-4.182 0-7.571-3.393-7.571-7.58s3.39-7.58 7.571-7.58zm151.429 0c4.181 0 7.571 3.394 7.571 7.58 0 4.188-3.39 7.581-7.571 7.581-4.182 0-7.572-3.393-7.572-7.58s3.39-7.58 7.572-7.58zm90.857 0c4.181 0 7.571 3.394 7.571 7.58 0 4.188-3.39 7.581-7.571 7.581-4.182 0-7.572-3.393-7.572-7.58s3.39-7.58 7.572-7.58zm-30.286 0c4.182 0 7.571 3.394 7.571 7.58 0 4.188-3.39 7.581-7.571 7.581-4.182 0-7.571-3.393-7.571-7.58s3.39-7.58 7.571-7.58zm-181.714 0c4.181 0 7.571 3.394 7.571 7.58 0 4.188-3.39 7.581-7.571 7.581-4.182 0-7.572-3.393-7.572-7.58s3.39-7.58 7.572-7.58zm60.571-30.322c4.182 0 7.572 3.394 7.572 7.58 0 4.187-3.39 7.58-7.572 7.58-4.181 0-7.571-3.393-7.571-7.58 0-4.186 3.39-7.58 7.571-7.58zm90.857 0c4.182 0 7.572 3.394 7.572 7.58 0 4.187-3.39 7.58-7.572 7.58-4.181 0-7.571-3.393-7.571-7.58 0-4.186 3.39-7.58 7.571-7.58zm-60.571 0c4.181 0 7.571 3.394 7.571 7.58 0 4.187-3.39 7.58-7.571 7.58-4.182 0-7.572-3.393-7.572-7.58 0-4.186 3.39-7.58 7.572-7.58zm-60.572 0c4.182 0 7.572 3.394 7.572 7.58 0 4.187-3.39 7.58-7.572 7.58-4.181 0-7.571-3.393-7.571-7.58 0-4.186 3.39-7.58 7.571-7.58zm-30.285 0c4.181 0 7.571 3.394 7.571 7.58 0 4.187-3.39 7.58-7.571 7.58-4.182 0-7.572-3.393-7.572-7.58 0-4.186 3.39-7.58 7.572-7.58zm-30.286 0c4.182 0 7.571 3.394 7.571 7.58 0 4.187-3.39 7.58-7.571 7.58-4.182 0-7.571-3.393-7.571-7.58 0-4.186 3.39-7.58 7.571-7.58zm151.429 0c4.181 0 7.571 3.394 7.571 7.58 0 4.187-3.39 7.58-7.571 7.58-4.182 0-7.572-3.393-7.572-7.58 0-4.186 3.39-7.58 7.572-7.58zm90.857 0c4.181 0 7.571 3.394 7.571 7.58 0 4.187-3.39 7.58-7.571 7.58-4.182 0-7.572-3.393-7.572-7.58 0-4.186 3.39-7.58 7.572-7.58zm-30.286 0c4.182 0 7.571 3.394 7.571 7.58 0 4.187-3.39 7.58-7.571 7.58-4.182 0-7.571-3.393-7.571-7.58 0-4.186 3.39-7.58 7.571-7.58zm-242.286 0c4.182 0 7.572 3.394 7.572 7.58 0 4.187-3.39 7.58-7.572 7.58-4.181 0-7.571-3.393-7.571-7.58 0-4.186 3.39-7.58 7.571-7.58zm0-30.323c4.182 0 7.572 3.394 7.572 7.58 0 4.187-3.39 7.581-7.572 7.581-4.181 0-7.571-3.394-7.571-7.58 0-4.187 3.39-7.581 7.571-7.581zm242.286 0c4.182 0 7.571 3.394 7.571 7.58 0 4.187-3.39 7.581-7.571 7.581-4.182 0-7.571-3.394-7.571-7.58 0-4.187 3.39-7.581 7.571-7.581zm30.286 0c4.181 0 7.571 3.394 7.571 7.58 0 4.187-3.39 7.581-7.571 7.581-4.182 0-7.572-3.394-7.572-7.58 0-4.187 3.39-7.581 7.572-7.581zm-90.857 0c4.181 0 7.571 3.394 7.571 7.58 0 4.187-3.39 7.581-7.571 7.581-4.182 0-7.572-3.394-7.572-7.58 0-4.187 3.39-7.581 7.572-7.581zm-151.429 0c4.182 0 7.571 3.394 7.571 7.58 0 4.187-3.39 7.581-7.571 7.581-4.182 0-7.571-3.394-7.571-7.58 0-4.187 3.39-7.581 7.571-7.581zm30.286 0c4.181 0 7.571 3.394 7.571 7.58 0 4.187-3.39 7.581-7.571 7.581-4.182 0-7.572-3.394-7.572-7.58 0-4.187 3.39-7.581 7.572-7.581zm30.285 0c4.182 0 7.572 3.394 7.572 7.58 0 4.187-3.39 7.581-7.572 7.581-4.181 0-7.571-3.394-7.571-7.58 0-4.187 3.39-7.581 7.571-7.581zm30.286 0c4.182 0 7.572 3.394 7.572 7.58 0 4.187-3.39 7.581-7.572 7.581-4.181 0-7.571-3.394-7.571-7.58 0-4.187 3.39-7.581 7.571-7.581zm90.857 0c4.182 0 7.572 3.394 7.572 7.58 0 4.187-3.39 7.581-7.572 7.581-4.181 0-7.571-3.394-7.571-7.58 0-4.187 3.39-7.581 7.571-7.581zm-60.571 0c4.181 0 7.571 3.394 7.571 7.58 0 4.187-3.39 7.581-7.571 7.581-4.182 0-7.572-3.394-7.572-7.58 0-4.187 3.39-7.581 7.572-7.581zM22.714 171.806c4.182 0 7.572 3.394 7.572 7.581s-3.39 7.58-7.572 7.58c-4.181 0-7.571-3.393-7.571-7.58s3.39-7.58 7.571-7.58zm121.143 0c4.182 0 7.572 3.394 7.572 7.581s-3.39 7.58-7.572 7.58c-4.181 0-7.571-3.393-7.571-7.58s3.39-7.58 7.571-7.58zm151.429 0c4.181 0 7.571 3.394 7.571 7.581s-3.39 7.58-7.571 7.58c-4.182 0-7.572-3.393-7.572-7.58s3.39-7.58 7.572-7.58zm-90.857 0c4.181 0 7.571 3.394 7.571 7.581s-3.39 7.58-7.571 7.58c-4.182 0-7.572-3.393-7.572-7.58s3.39-7.58 7.572-7.58zm-30.286 0c4.181 0 7.571 3.394 7.571 7.581s-3.39 7.58-7.571 7.58c-4.182 0-7.572-3.393-7.572-7.58s3.39-7.58 7.572-7.58zm90.857 0c4.182 0 7.571 3.394 7.571 7.581s-3.39 7.58-7.571 7.58c-4.182 0-7.571-3.393-7.571-7.58s3.39-7.58 7.571-7.58zm-151.429 0c4.182 0 7.572 3.394 7.572 7.581s-3.39 7.58-7.572 7.58c-4.181 0-7.571-3.393-7.571-7.58s3.39-7.58 7.571-7.58zm-60.571 0c4.182 0 7.571 3.394 7.571 7.581s-3.39 7.58-7.571 7.58c-4.182 0-7.571-3.393-7.571-7.58s3.39-7.58 7.571-7.58zm30.286 0c4.181 0 7.571 3.394 7.571 7.581s-3.39 7.58-7.571 7.58c-4.182 0-7.572-3.393-7.572-7.58s3.39-7.58 7.572-7.58zm151.428 0c4.182 0 7.572 3.394 7.572 7.581s-3.39 7.58-7.572 7.58c-4.181 0-7.571-3.393-7.571-7.58s3.39-7.58 7.571-7.58zm-212-30.322c4.182 0 7.572 3.394 7.572 7.58 0 4.187-3.39 7.581-7.572 7.581-4.181 0-7.571-3.394-7.571-7.58 0-4.187 3.39-7.581 7.571-7.581zm242.286 0c4.182 0 7.571 3.394 7.571 7.58 0 4.187-3.39 7.581-7.571 7.581-4.182 0-7.571-3.394-7.571-7.58 0-4.187 3.39-7.581 7.571-7.581zm30.286 0c4.181 0 7.571 3.394 7.571 7.58 0 4.187-3.39 7.581-7.571 7.581-4.182 0-7.572-3.394-7.572-7.58 0-4.187 3.39-7.581 7.572-7.581zm-212 0c4.181 0 7.571 3.394 7.571 7.58 0 4.187-3.39 7.581-7.571 7.581-4.182 0-7.572-3.394-7.572-7.58 0-4.187 3.39-7.581 7.572-7.581zm30.285 0c4.182 0 7.572 3.394 7.572 7.58 0 4.187-3.39 7.581-7.572 7.581-4.181 0-7.571-3.394-7.571-7.58 0-4.187 3.39-7.581 7.571-7.581zm30.286 0c4.182 0 7.572 3.394 7.572 7.58 0 4.187-3.39 7.581-7.572 7.581-4.181 0-7.571-3.394-7.571-7.58 0-4.187 3.39-7.581 7.571-7.581zm30.286 0c4.181 0 7.571 3.394 7.571 7.58 0 4.187-3.39 7.581-7.571 7.581-4.182 0-7.572-3.394-7.572-7.58 0-4.187 3.39-7.581 7.572-7.581zm30.286 0c4.181 0 7.571 3.394 7.571 7.58 0 4.187-3.39 7.581-7.571 7.581-4.182 0-7.572-3.394-7.572-7.58 0-4.187 3.39-7.581 7.572-7.581zm30.285 0c4.182 0 7.572 3.394 7.572 7.58 0 4.187-3.39 7.581-7.572 7.581-4.181 0-7.571-3.394-7.571-7.58 0-4.187 3.39-7.581 7.571-7.581zm-181.714 0c4.182 0 7.571 3.394 7.571 7.58 0 4.187-3.39 7.581-7.571 7.581-4.182 0-7.571-3.394-7.571-7.58 0-4.187 3.39-7.581 7.571-7.581zM22.714 111.16c4.182 0 7.572 3.394 7.572 7.58 0 4.188-3.39 7.582-7.572 7.582-4.181 0-7.571-3.394-7.571-7.581s3.39-7.58 7.571-7.58zm30.286 0c4.182 0 7.571 3.394 7.571 7.58 0 4.188-3.39 7.582-7.571 7.582-4.182 0-7.571-3.394-7.571-7.581s3.39-7.58 7.571-7.58zm30.286 0c4.181 0 7.571 3.394 7.571 7.58 0 4.188-3.39 7.582-7.571 7.582-4.182 0-7.572-3.394-7.572-7.581s3.39-7.58 7.572-7.58zm30.285 0c4.182 0 7.572 3.394 7.572 7.58 0 4.188-3.39 7.582-7.572 7.582-4.181 0-7.571-3.394-7.571-7.581s3.39-7.58 7.571-7.58zm30.286 0c4.182 0 7.572 3.394 7.572 7.58 0 4.188-3.39 7.582-7.572 7.582-4.181 0-7.571-3.394-7.571-7.581s3.39-7.58 7.571-7.58zm30.286 0c4.181 0 7.571 3.394 7.571 7.58 0 4.188-3.39 7.582-7.571 7.582-4.182 0-7.572-3.394-7.572-7.581s3.39-7.58 7.572-7.58zm30.286 0c4.181 0 7.571 3.394 7.571 7.58 0 4.188-3.39 7.582-7.571 7.582-4.182 0-7.572-3.394-7.572-7.581s3.39-7.58 7.572-7.58zm30.285 0c4.182 0 7.572 3.394 7.572 7.58 0 4.188-3.39 7.582-7.572 7.582-4.181 0-7.571-3.394-7.571-7.581s3.39-7.58 7.571-7.58zm30.286 0c4.182 0 7.571 3.394 7.571 7.58 0 4.188-3.39 7.582-7.571 7.582-4.182 0-7.571-3.394-7.571-7.581s3.39-7.58 7.571-7.58zm30.286 0c4.181 0 7.571 3.394 7.571 7.58 0 4.188-3.39 7.582-7.571 7.582-4.182 0-7.572-3.394-7.572-7.581s3.39-7.58 7.572-7.58z"/>
        </g>
        <rect width="133" height="389" x="347" y="331" fill="#ED6060" rx="2"/>
        <rect width="133" height="389" x="119" y="279" fill="#365369" rx="2"/>
        <rect width="133" height="389" x="252" fill="#30C2B0" rx="2"/>
    </g>
</svg>
